<?xml version="1.0" encoding="UTF-8" standalone="no"?>
<!-- Created with Inkscape (http://www.inkscape.org/) -->

<svg
   width="16"
   height="16"
   viewBox="0 0 4.2333334 4.2333334"
   version="1.1"
   id="svg26107"
   inkscape:version="1.2 (dc2aedaf03, 2022-05-15)"
   xmlns:inkscape="http://www.inkscape.org/namespaces/inkscape"
   xmlns:sodipodi="http://sodipodi.sourceforge.net/DTD/sodipodi-0.dtd"
   xmlns="http://www.w3.org/2000/svg"
   xmlns:svg="http://www.w3.org/2000/svg">
  <sodipodi:namedview
     id="namedview26109"
     pagecolor="#ffffff"
     bordercolor="#828282"
     borderopacity="1"
     inkscape:showpageshadow="false"
     inkscape:pageopacity="0"
     inkscape:pagecheckerboard="false"
     inkscape:deskcolor="#ffffff"
     inkscape:document-units="mm"
     showgrid="false"
     shape-rendering="auto" />
  <defs
     id="defs26104" />
  <g
     inkscape:label="Ebene 1"
     inkscape:groupmode="layer"
     id="layer1">
    <path
       id="rect8409"
       style="fill:none;stroke:#ffffff;stroke-width:0.457964;stroke-linecap:square;stroke-linejoin:round;stroke-miterlimit:0;stroke-dasharray:none;stroke-opacity:1"
       d="M 1.7861314,0.334945 C 1.6388989,0.340063 1.5214107,0.50577543 1.5214107,0.71041218 c 0,0.0728956 0.014626,0.14049437 0.040464,0.19795547 H 0.6833722 c -0.11598061,0 -0.20914399,0.17909345 -0.20914399,0.40139585 0,0.2223023 0.0931634,0.4008972 0.20914399,0.4008972 h 0.3568611 v 1.949637 c 0,0.1907481 0.1498886,0.3440536 0.3363854,0.3440536 h 1.4800959 c 0.1864968,0 0.3363855,-0.1533055 0.3363855,-0.3440536 v -1.949637 h 0.356861 c 0.1159802,0 0.209144,-0.1785949 0.209144,-0.4008972 0,-0.2223024 -0.093164,-0.40139585 -0.209144,-0.40139585 H 2.6714589 C 2.6972969,0.85090655 2.7119229,0.78330776 2.7119229,0.71041218 2.7119229,0.50252714 2.5908854,0.334945 2.440377,0.334945 H 1.7929566 c -0.00235,0 -0.00449,-8.123e-5 -0.00683,0 z"
       inkscape:export-filename="delete.svg"
       inkscape:export-xdpi="96"
       inkscape:export-ydpi="96" />
  </g>
</svg>
