<?xml version="1.0" encoding="UTF-8" standalone="no"?>
<!-- Created with Inkscape (http://www.inkscape.org/) -->

<svg
   width="48"
   height="48"
   viewBox="0 0 48 48"
   version="1.1"
   id="svg26107"
   inkscape:version="1.2 (dc2aedaf03, 2022-05-15)"
   inkscape:export-filename="exit.svg"
   inkscape:export-xdpi="96"
   inkscape:export-ydpi="96"
   xmlns:inkscape="http://www.inkscape.org/namespaces/inkscape"
   xmlns:sodipodi="http://sodipodi.sourceforge.net/DTD/sodipodi-0.dtd"
   xmlns="http://www.w3.org/2000/svg"
   xmlns:svg="http://www.w3.org/2000/svg">
  <sodipodi:namedview
     id="namedview26109"
     pagecolor="#ffffff"
     bordercolor="#828282"
     borderopacity="1"
     inkscape:showpageshadow="false"
     inkscape:pageopacity="0"
     inkscape:pagecheckerboard="false"
     inkscape:deskcolor="#ffffff"
     inkscape:document-units="px"
     showgrid="false"
     shape-rendering="auto" />
  <defs
     id="defs26104" />
  <g
     inkscape:label="Ebene 1"
     inkscape:groupmode="layer"
     id="layer1">
    <g
       id="g503"
       transform="matrix(1.5787243,0,0,1.7274074,-33.948819,-17.457778)"
       style="fill:#000000">
      <path
         id="path739"
         style="stroke-width:3.48079;stroke-linecap:square;stroke-miterlimit:0"
         d="M 36.706104,10.106346 A 15.202147,13.893654 0 0 0 21.503957,24 15.202147,13.893654 0 0 0 36.706104,37.893654 15.202147,13.893654 0 0 0 51.908252,24 15.202147,13.893654 0 0 0 36.706104,10.106346 Z m 0,3.130821 a 2.1067581,1.925423 0 0 1 2.106874,1.925529 2.1067581,1.925423 0 0 1 -2.106874,1.925528 2.1067581,1.925423 0 0 1 -2.106873,-1.925528 2.1067581,1.925423 0 0 1 2.106873,-1.925529 z m -1.317569,6.121439 h 2.636376 c 0.436954,0 0.788067,0.352252 0.788067,0.789207 v 13.825813 c 0,0.436954 -0.351113,0.789207 -0.788067,0.789207 h -2.636376 c -0.436953,0 -0.789304,-0.352253 -0.789304,-0.789207 V 20.147813 c 0,-0.436955 0.352351,-0.789207 0.789304,-0.789207 z" />
    </g>
  </g>
</svg>
