<?xml version="1.0" encoding="UTF-8" standalone="no"?>
<!-- Created with Inkscape (http://www.inkscape.org/) -->

<svg
   width="16"
   height="16"
   viewBox="0 0 4.2333334 4.2333334"
   version="1.1"
   id="svg26107"
   inkscape:version="1.2 (dc2aedaf03, 2022-05-15)"
   inkscape:export-filename="upload.svg"
   inkscape:export-xdpi="96"
   inkscape:export-ydpi="96"
   sodipodi:docname="upload.svg"
   xmlns:inkscape="http://www.inkscape.org/namespaces/inkscape"
   xmlns:sodipodi="http://sodipodi.sourceforge.net/DTD/sodipodi-0.dtd"
   xmlns="http://www.w3.org/2000/svg"
   xmlns:svg="http://www.w3.org/2000/svg">
  <sodipodi:namedview
     id="namedview26109"
     pagecolor="#ffffff"
     bordercolor="#828282"
     borderopacity="1"
     inkscape:showpageshadow="false"
     inkscape:pageopacity="0"
     inkscape:pagecheckerboard="false"
     inkscape:deskcolor="#ffffff"
     inkscape:document-units="mm"
     showgrid="false"
     shape-rendering="auto" />
  <defs
     id="defs26104" />
  <g
     inkscape:label="Ebene 1"
     inkscape:groupmode="layer"
     id="layer1">
    <g
       id="g5352"
       transform="matrix(1.584362,0,0,1.584362,-1.2368995,-1.2407742)">
      <g
         id="g5479"
         transform="matrix(1.0903509,0,0,1.0903509,-0.19124264,-0.31283696)">
        <g
           id="g6547"
           transform="matrix(0.72564348,0,0,0.72564348,0.60278164,0.61870113)"
           style="fill:#e01b24;fill-opacity:1">
          <path
             id="rect2244"
             style="fill:none;fill-opacity:1;stroke:#ffffff;stroke-width:0.303137;stroke-linecap:square;stroke-linejoin:round;stroke-miterlimit:0;stroke-dasharray:none;stroke-opacity:1"
             d="m 2.0755472,0.78293523 c -0.0507,0.003606 -0.096286,0.0321937 -0.1216103,0.0762641 L 1.5243844,1.6032897 1.359489,1.888971 C 1.300605,1.9908386 1.374156,2.1182346 1.4918175,2.1181756 h 0.067607 v 0.6546347 c 0,0.1180614 0.1264146,0.2131273 0.2832079,0.2131273 H 0.86068044 c -0.13768849,0 -0.2485798,0.092455 -0.2485798,0.2073559 v 0.3574108 c 0,0.1149011 0.11089131,0.2073559 0.2485798,0.2073559 H 3.3118504 c 0.1376886,0 0.2485798,-0.092455 0.2485798,-0.2073559 V 3.1932935 c 0,-0.114901 -0.1108912,-0.2073559 -0.2485798,-0.2073559 h -0.981952 c 0.1567929,0 0.2832078,-0.095066 0.2832078,-0.2131273 V 2.1181756 h 0.067607 c 0.1176619,5.9e-5 0.1912124,-0.127337 0.1323285,-0.2292046 L 2.3834894,1.1448806 2.218594,0.85919935 C 2.1894453,0.80848762 2.1338981,0.77887309 2.0755472,0.78293523 Z"
             sodipodi:nodetypes="ccccccscsssssssscscccccc" />
        </g>
      </g>
    </g>
  </g>
</svg>
